HIERARCHY
ROOT Hips
{
 OFFSET 0.000000 0.000000 0.000000
 CHANNELS 6 Xposition Yposition Zposition Yrotation Xrotation Zrotation
 JOINT Chest
 {
  OFFSET 0.000000 9.585900 0.002600
  CHANNELS 3 Yrotation Xrotation Zrotation
  JOINT Chest2
  {
   OFFSET 0.000000 9.601200 -0.005300
   CHANNELS 3 Yrotation Xrotation Zrotation
   JOINT Chest3
   {
    OFFSET 0.000000 9.561800 0.000000
    CHANNELS 3 Yrotation Xrotation Zrotation
    JOINT Chest4
    {
     OFFSET 0.000000 9.552100 0.000000
     CHANNELS 3 Yrotation Xrotation Zrotation
     JOINT Neck
     {
      OFFSET 0.000000 14.453000 0.000000
      CHANNELS 3 Yrotation Xrotation Zrotation
      JOINT Head
      {
       OFFSET 0.000000 8.936500 -0.011300
       CHANNELS 3 Yrotation Xrotation Zrotation
       End Site
       {
        OFFSET 0.000000 17.073600 -0.006000
       }
      }
     }
     JOINT RightCollar
     {
      OFFSET -2.921100 9.558500 0.000000
      CHANNELS 3 Yrotation Xrotation Zrotation
      JOINT RightShoulder
      {
       OFFSET -13.519700 0.000000 0.000000
       CHANNELS 3 Yrotation Xrotation Zrotation
       JOINT RightElbow
       {
        OFFSET 0.000000 -29.696600 0.000000
        CHANNELS 3 Yrotation Xrotation Zrotation
        JOINT RightWrist
        {
         OFFSET 0.000000 -24.004700 0.000000
         CHANNELS 3 Yrotation Xrotation Zrotation
         End Site
         {
          OFFSET 0.000000 -17.728500 0.000000
         }
        }
       }
      }
     }
     JOINT LeftCollar
     {
      OFFSET 2.921100 9.558500 0.000000
      CHANNELS 3 Yrotation Xrotation Zrotation
      JOINT LeftShoulder
      {
       OFFSET 13.519700 0.000000 0.000000
       CHANNELS 3 Yrotation Xrotation Zrotation
       JOINT LeftElbow
       {
        OFFSET 0.000000 -29.696600 0.000000
        CHANNELS 3 Yrotation Xrotation Zrotation
        JOINT LeftWrist
        {
         OFFSET 0.000000 -24.004700 0.000000
         CHANNELS 3 Yrotation Xrotation Zrotation
         End Site
         {
          OFFSET 0.000000 -17.728500 0.000000
         }
        }
       }
      }
     }
    }
   }
  }
 }
 JOINT RightHip
 {
  OFFSET -7.771700 -0.012900 -0.001300
  CHANNELS 3 Yrotation Xrotation Zrotation
  JOINT RightKnee
  {
   OFFSET 0.000000 -40.869800 0.001200
   CHANNELS 3 Yrotation Xrotation Zrotation
   JOINT RightAnkle
   {
    OFFSET 0.000000 -39.717900 0.002100
    CHANNELS 3 Yrotation Xrotation Zrotation
    JOINT RightToe
    {
     OFFSET 0.000000 -4.965400 11.033500
     CHANNELS 3 Yrotation Xrotation Zrotation
     End Site
     {
      OFFSET 0.000000 -1.423100 5.872300
     }
    }
   }
  }
 }
 JOINT LeftHip
 {
  OFFSET 7.771700 -0.012900 -0.001300
  CHANNELS 3 Yrotation Xrotation Zrotation
  JOINT LeftKnee
  {
   OFFSET 0.000000 -40.869800 0.001200
   CHANNELS 3 Yrotation Xrotation Zrotation
   JOINT LeftAnkle
   {
    OFFSET 0.000000 -39.717900 0.002100
    CHANNELS 3 Yrotation Xrotation Zrotation
    JOINT LeftToe
    {
     OFFSET 0.000000 -4.965400 11.033500
     CHANNELS 3 Yrotation Xrotation Zrotation
     End Site
     {
      OFFSET 0.000000 -1.423100 5.872300
     }
    }
   }
  }
 }
}
MOTION
Frames: 9
Frame Time: 0.008333
-21.408411 43.900582 27.495914 176.780726 -35.415129 -0.066224 -0.580110 17.497418 1.306754 -0.070051 1.881159 0.197394 -0.099880 3.094474 0.320412 -0.435311 15.382652 1.553345 -1.179407 15.881027 -4.022494 -0.253682 -9.136028 -4.074625 0.162421 -1.933556 -16.894366 -17.296805 -9.700238 -11.160761 -167.087877 -50.723834 -173.003157 -4.327883 -10.603224 -48.596914 2.035925 -3.435760 3.819890 28.718927 -2.050356 9.830625 159.770591 -44.222917 175.463686 18.614285 0.980677 46.081540 -0.920972 -56.360922 8.097755 -153.002414 68.676085 -151.631719 -9.171312 -22.824542 7.567713 0.333054 -0.796211 0.201845 3.703058 -41.990254 -1.216890 175.763819 58.033251 176.105757 -1.503032 -38.633671 1.263361 0.069233 -3.774911 0.590871
-21.406875 43.894957 27.462070 176.717812 -35.340474 -0.065201 -0.543643 17.509782 1.344493 -0.080054 1.904865 0.200171 -0.121600 3.143586 0.328106 -0.461038 15.389806 1.571893 -1.147466 15.782663 -4.044670 -0.247348 -9.158925 -4.077050 0.183510 -2.028965 -16.915323 -17.216182 -9.809795 -11.207530 -167.034812 -50.767055 -173.066251 -4.360189 -10.512632 -48.547810 2.063570 -3.532282 3.781450 28.766355 -2.040290 9.843255 159.820553 -44.193867 175.416597 18.597276 0.956521 46.022337 -0.886422 -56.426291 8.116880 -153.124802 68.650591 -151.717769 -9.163238 -22.901981 7.569603 0.311744 -0.743069 0.179905 3.740394 -41.980847 -1.225224 175.724876 58.038385 176.087992 -1.461374 -38.831082 1.278741 0.054672 -2.899084 0.439112
-21.404769 43.888409 27.430334 176.669495 -35.245118 -0.077813 -0.503586 17.457818 1.388919 -0.081146 1.905231 0.200898 -0.145323 3.207914 0.339385 -0.480243 15.390861 1.584212 -1.122572 15.707356 -4.069348 -0.260757 -9.153581 -4.051732 0.192962 -2.078965 -16.928724 -17.156144 -9.892323 -11.245929 -166.958169 -50.812774 -173.138681 -4.380190 -10.459775 -48.511018 2.086838 -3.586983 3.752681 28.780130 -2.015526 9.860292 159.923448 -44.175656 175.344090 18.557743 0.940605 46.002597 -0.888116 -56.511751 8.161187 -153.207612 68.636762 -151.780146 -9.171144 -22.943154 7.585072 0.311467 -0.715708 0.159190 3.756638 -42.016863 -1.208437 175.720537 58.028097 176.093488 -1.443155 -38.972470 1.311083 0.054144 -2.237548 0.322652
-21.405410 43.881379 27.399633 176.601479 -35.135668 -0.063596 -0.466594 17.453169 1.418774 -0.083266 1.905041 0.202776 -0.141321 3.185641 0.338729 -0.491355 15.388797 1.595238 -1.113563 15.661416 -4.081657 -0.277637 -9.142365 -4.022506 0.190224 -2.101146 -16.931747 -17.117210 -9.949646 -11.277187 -166.861333 -50.848142 -173.213452 -4.416606 -10.405351 -48.452445 2.114325 -3.646628 3.722813 28.753493 -1.962390 9.891623 160.087566 -44.165068 175.243211 18.499833 0.935998 46.017611 -0.871681 -56.612372 8.194143 -153.290589 68.618570 -151.854782 -9.171615 -23.052761 7.616195 0.295854 -0.638698 0.125435 3.823098 -42.055583 -1.235019 175.666949 58.033806 176.065212 -1.411427 -39.126539 1.336670 0.035914 -1.689495 0.220457
-21.420219 43.879042 27.361571 176.654708 -35.068796 -0.032273 -0.551864 17.488018 1.356027 -0.084586 1.903788 0.204571 -0.136915 3.163685 0.338651 -0.498105 15.384162 1.606612 -1.125881 15.646479 -4.067652 -0.284550 -9.161937 -4.011296 0.188726 -2.118941 -16.929084 -17.063064 -9.959271 -11.309304 -166.786022 -50.857834 -173.286250 -4.460758 -10.358263 -48.373823 2.113699 -3.653452 3.711808 28.733099 -1.934784 9.875280 160.309755 -44.154487 175.116525 18.429536 0.946742 46.057430 -0.841042 -56.668627 8.074989 -153.442134 68.542735 -151.983983 -9.261588 -23.153261 7.634870 0.379640 -0.630302 0.133502 3.872380 -42.053618 -1.378929 175.607897 58.040665 176.030391 -1.425730 -39.273351 1.380703 0.049801 -1.244621 0.151680
-21.425166 43.879301 27.320213 176.637215 -35.026362 -0.018298 -0.553710 17.529266 1.352661 -0.085088 1.901861 0.205938 -0.129231 3.121074 0.336984 -0.509256 15.416380 1.622366 -1.160466 15.681089 -4.022873 -0.281235 -9.222255 -4.028607 0.193257 -2.134445 -16.924072 -17.038431 -9.972878 -11.322209 -166.680555 -50.884867 -173.354123 -4.501199 -10.325663 -48.285342 2.106142 -3.596034 3.707390 28.702371 -1.951669 9.812489 160.569399 -44.140697 174.975125 18.352637 0.966008 46.106151 -0.852433 -56.700997 8.069832 -153.536435 68.486893 -152.070079 -9.306862 -23.215231 7.651274 0.424150 -0.648536 0.133708 3.920467 -42.026264 -1.435561 175.579438 58.024323 176.031473 -1.414936 -39.406856 1.383931 0.061679 -0.926386 0.120206
-21.427843 43.877604 27.281337 176.586801 -34.964309 -0.000347 -0.522489 17.554136 1.365159 -0.085206 1.899426 0.207177 -0.133638 3.136251 0.341229 -0.505899 15.388138 1.630927 -1.179434 15.684774 -3.998362 -0.324465 -9.213769 -3.972095 0.202054 -2.148990 -16.919897 -17.022695 -9.972872 -11.325097 -166.576257 -50.908295 -173.413918 -4.536171 -10.305627 -48.202198 2.119793 -3.634186 3.685168 28.623664 -1.889427 9.795526 160.838019 -44.124574 174.834112 18.277375 0.985084 46.136804 -0.861682 -56.754620 8.090019 -153.592310 68.440676 -152.126414 -9.291188 -23.287459 7.659732 0.417761 -0.690878 0.142502 3.981644 -42.021873 -1.467428 175.536515 58.012276 176.014666 -1.400471 -39.524569 1.389566 0.060325 -0.683480 0.092946
-21.429678 43.872726 27.246483 176.536200 -34.872473 0.010724 -0.481222 17.506534 1.385377 -0.092059 1.941297 0.210315 -0.137736 3.152663 0.344833 -0.499821 15.358274 1.640045 -1.192956 15.673412 -3.984999 -0.351541 -9.213079 -3.939331 0.212804 -2.163182 -16.915490 -17.010465 -9.966560 -11.322700 -166.493370 -50.927337 -173.457113 -4.567544 -10.292615 -48.138496 2.130069 -3.672358 3.663048 28.538722 -1.822728 9.761823 161.082475 -44.107839 174.707238 18.209736 0.997284 46.130858 -0.864720 -56.841296 8.122038 -153.617863 68.402645 -152.147401 -9.297605 -23.343405 7.672778 0.432302 -0.709581 0.146462 4.034154 -42.048963 -1.486929 175.491180 58.004016 175.989673 -1.392264 -39.661045 1.420956 0.059565 -0.532577 0.049353
-21.427238 43.859943 27.222720 176.463742 -34.702805 0.004394 -0.421781 17.448169 1.437103 -0.089278 1.916972 0.209941 -0.137253 3.148800 0.346923 -0.496662 15.349263 1.651937 -1.206006 15.661167 -3.973215 -0.367983 -9.226507 -3.923510 0.226570 -2.176215 -16.910489 -17.000426 -9.959589 -11.318926 -166.443302 -50.944870 -173.481488 -4.571215 -10.303220 -48.105284 2.148958 -3.683075 3.635198 28.449475 -1.780111 9.703259 161.265586 -44.094857 174.609410 18.150690 0.994587 46.085014 -0.895989 -57.008120 8.212222 -153.645091 68.389058 -152.176658 -9.269395 -23.428800 7.693695 0.390209 -0.678202 0.125948 4.070492 -42.178462 -1.457892 175.469712 57.983452 175.976736 -1.373136 -39.773215 1.447703 0.045682 -0.336137 0.017034
